<?xml version="1.0" encoding="UTF-8"?>
<svg id="_Слой_1" data-name="Слой 1" xmlns="http://www.w3.org/2000/svg" version="1.1" viewBox="0 0 150 150">
  <defs>
    <style>
      .cls-1 {
        fill: #660417;
      }

      .cls-1, .cls-2, .cls-3, .cls-4 {
        stroke-width: 0px;
      }

      .cls-2 {
        fill: #9d0419;
      }

      .cls-3 {
        fill: #e2d59f;
      }

      .cls-4 {
        fill: #1f1e1c;
      }
    </style>
  </defs>
  <rect class="cls-4" width="150" height="150" transform="translate(150 150) rotate(180)"/>
  <g>
    <path class="cls-2" d="M78,68.3"/>
    <path class="cls-2" d="M48.1,74.2c.1,0,1.8.7,3.4-.3,1.1-.8,1.7-2.1,1.5-3.5-1.3.4-3.5,1.2-4.6,3.3-.1.2-.2.4-.3.5Z"/>
    <polygon class="cls-2" points="92.8 58 71.4 57.6 67.3 63.2 70.8 65.9 92.8 58"/>
    <polygon class="cls-1" points="94.2 75.8 77.8 67.3 73.6 68.7 75.6 76 94.2 75.8"/>
    <polygon class="cls-1" points="80.1 79.5 94.5 93 75.8 85.7 75.8 79.5 80.1 79.5"/>
    <polygon class="cls-1" points="85.3 100.5 82.9 92.3 75.2 89.3 70.9 100.5 85.3 100.5"/>
    <polygon class="cls-1" points="45 67 70.1 33.5 62.6 56.3 56.9 58 53.1 63.4 45 67"/>
    <g>
      <path class="cls-2" d="M64.6,70.3c1.1-.6,1.9-1.1,2.4-1.4l1.2.7v12.6c-1.1.6-1.9,1.1-2.4,1.4v-12.6c-.5-.3-.9-.5-1.2-.7Z"/>
      <path class="cls-3" d="M71.3,71c1.1-.6,1.9-1.1,2.4-1.4v5.6c1.1-.6,1.9-1.1,2.4-1.4l2.4,1.4v5.6c.5.3.9.5,1.2.7-1.1.6-1.9,1.1-2.4,1.4-.5-.3-.9-.5-1.2-.7v-5.6c-1.1-.6-1.9-1.1-2.4-1.4v5.6c1.1.6,1.9,1.1,2.4,1.4-1.1.6-1.9,1.1-2.4,1.4l-2.4-1.4v-11.2ZM73.8,69.6c1.1-.6,1.9-1.1,2.4-1.4l2.4,1.4c-1.1.6-1.9,1.1-2.4,1.4-1.1-.6-1.9-1.1-2.4-1.4Z"/>
      <path class="cls-3" d="M80.5,70.3c1.1-.6,1.9-1.1,2.4-1.4l1.2.7v12.6c-1.1.6-1.9,1.1-2.4,1.4v-12.6c-.5-.3-.9-.5-1.2-.7ZM87.8,82.9c-.5-.3-1-.5-1.2-.7v-11.2c-1.1-.6-1.9-1.1-2.4-1.4l2.4-1.4,2.4,1.4v11.2c.5.3.9.5,1.2.7l-2.4,1.4Z"/>
      <path class="cls-3" d="M90.9,70.3c1.1-.6,1.9-1.1,2.4-1.4l1.2.7v12.6c-1.1.6-1.9,1.1-2.4,1.4v-12.6c-.5-.3-.9-.5-1.2-.7Z"/>
      <path class="cls-3" d="M83,85.7c.5.3,1,.5,1.2.7v11.2c1.1.6,1.9,1.1,2.4,1.4-1.1.6-1.9,1.1-2.4,1.4-1.1-.6-1.9-1.1-2.4-1.4v-11.2c-.5-.3-.9-.5-1.2-.7,1.1-.6,1.9-1.1,2.4-1.4ZM86.6,85c1.1.6,1.9,1.1,2.4,1.4v11.2c-1.1.6-1.9,1.1-2.4,1.4v-11.2c-1.1-.6-1.9-1.1-2.4-1.4,1.1-.6,1.9-1.1,2.4-1.4Z"/>
      <path class="cls-3" d="M93.4,85.7c.5.3,1,.5,1.2.7v12.6c-1.1.6-1.9,1.1-2.4,1.4v-12.6c-.5-.3-.9-.5-1.2-.7,1.1-.6,1.9-1.1,2.4-1.4ZM97,85c1.1.6,1.9,1.1,2.4,1.4v5.6c-1.1.6-1.9,1.1-2.4,1.4v-5.6c-1.1-.6-1.9-1.1-2.4-1.4,1.1-.6,1.9-1.1,2.4-1.4ZM97,96.2v2.8c.5.3.9.5,1.2.7,1.1-.6,1.9-1.1,2.4-1.4-.5-.3-.9-.5-1.2-.7v-2.8c-1.1-.6-1.9-1.1-2.4-1.4-1.1.6-1.9,1.1-2.4,1.4,1.1.6,1.9,1.1,2.4,1.4Z"/>
      <path class="cls-3" d="M102.6,87.8c.5-.3,1.3-.8,2.4-1.4v12.6l-2.4,1.4v-12.6ZM107.4,90.6c-.5.3-1.3.8-2.4,1.4.5.3,1.4.8,2.4,1.4v5.6c.3.2.7.4,1.2.7.5-.3,1.3-.8,2.4-1.4-.3-.2-.7-.4-1.2-.7v-11.2l-2.4-1.4c-.5.3-1.3.8-2.4,1.4.5.3,1.4.8,2.4,1.4v2.8Z"/>
    </g>
    <path class="cls-2" d="M58.5,83.2c-1.1,6.4-10.5,14.3-14.2,17.2h12.4c6.5-11.3,8.5-20.7,5-23.5-.6-.5-1.9-1.3-5-.8-2.8,0-6.7,2.4-10.1,6.8-1.8-1.8-3.5-3.5-5.3-5.3,1.8-2.5,5-6.4,10-9.7,4.8-3.2,9.3-4.6,12.3-5.4,5.5-7.8,10.9-15.5,16.4-23.3l-35.1,27.7-7.8,11.1c3,2.8,6,5.6,9.1,8.4.5-.5,1.3-1.3,2.4-2.2,1.7-1.5,2.5-2.3,3.4-2.9.4-.3,4.4-2.9,6-1.6,1,.8.6,2.7.5,3.5Z"/>
  </g>
</svg>