<?xml version="1.0" encoding="UTF-8"?>
<svg xmlns="http://www.w3.org/2000/svg" version="1.1" xmlns:xlink="http://www.w3.org/1999/xlink" viewBox="0 0 300 300">
  <defs>
    <style>
      .cls-1 {
        fill: #f0f0e8;
      }

      .cls-1, .cls-2, .cls-3, .cls-4, .cls-5, .cls-6, .cls-7, .cls-8 {
        stroke-width: 0px;
      }

      .cls-2 {
        fill: url(#_Безымянный_градиент_3);
      }

      .cls-3 {
        fill: #9097a3;
      }

      .cls-4 {
        fill: #7a7f87;
      }

      .cls-5 {
        fill: #f3c13a;
      }

      .cls-6 {
        fill: #eee8dc;
      }

      .cls-7 {
        fill: #9aa4b7;
      }

      .cls-8 {
        fill: #232323;
      }
    </style>
    <linearGradient id="_Безымянный_градиент_3" data-name="Безымянный градиент 3" x1="79.5" y1="162.2" x2="104" y2="140" gradientUnits="userSpaceOnUse">
      <stop offset="0" stop-color="#810004"/>
      <stop offset="1" stop-color="#ff0004"/>
    </linearGradient>
  </defs>
  <g id="_фон" data-name="фон">
    <rect class="cls-8" width="300" height="300"/>
  </g>
  <g id="_текст" data-name="текст">
    <g>
      <g>
        <path class="cls-6" d="M118.1,153.8v-1.2c1.1,0,1.7-.2,1.8-.3.1,0,.2-.1.2-.3,0-.2.2-1,.2-2.2,0-2,0-3.5,0-4.7s0-3.5,0-5.9c0-1.8-.1-2.8-.3-3.2,0-.1-.1-.2-.2-.3-.1,0-.7-.2-1.8-.3v-1.2c1.9,0,3.2,0,3.7,0h7c1.5,0,2.6,0,3.3.3s1.2.8,1.6,1.4c.4.6.6,1.4.6,2.3s-.3,2.1-1,2.9c-.6.8-1.8,1.6-3.4,2.2l3,4.5,2.3,3.4c.4.6.8.9,1,1,.2.1.6.2,1,.2v1.1h-.8c-2.3,0-3.9,0-4.5,0-.8-1.3-2-3.2-3.6-5.6l-2.9-4.3c0-.2.2-.3.2-.5.4,0,.6,0,.8,0,.9,0,1.7-.3,2.5-1,.8-.7,1.2-1.7,1.2-3s-.3-2-1-2.6-1.6-.9-3-.9-1,0-1.7,0v4.1c0,0-.2,5.2-.2,5.2,0,1.2,0,2.7.1,4.5,0,1.4.1,2.2.2,2.3,0,.1.2.2.3.3.2.1.8.2,1.9.2v1.2c-1.7,0-3.1,0-4.4,0s-2.8,0-4.4,0Z"/>
        <path class="cls-6" d="M147.2,151.1l.4.4-.6,1.3c-.7.4-1.4.7-2.1.9-.8.2-1.6.3-2.4.3-2,0-3.6-.6-4.8-1.8-1.2-1.2-1.7-2.8-1.7-4.9s.2-2.5.5-3.3c.3-.7.7-1.3,1.4-1.8.6-.5,1.4-.9,2.2-1.3.8-.4,1.7-.6,2.7-.6,1.5,0,2.8.4,3.8,1.3,1,.8,1.5,2.2,1.5,4.1s0,.6,0,1.1l-2.3.4c-.7,0-1.7,0-3,0h-3c.1,1.6.6,2.8,1.4,3.6.8.8,1.9,1.2,3.1,1.2s1.1,0,1.6-.2c.5-.2,1-.4,1.5-.7ZM139.5,145.7c.8,0,1.7.1,2.5.1s1.5,0,2.3-.1v-.7c0-1.1-.2-2-.6-2.5-.4-.5-1-.8-1.7-.8s-.9.1-1.3.4-.6.6-.8,1-.3,1.3-.4,2.5Z"/>
        <path class="cls-6" d="M157.5,140.9v-2.4c0-1.5,0-2.3,0-2.6,0-.2-.1-.3-.3-.4-.1,0-.8-.1-1.9-.1v-1c2.2-.2,4-.7,5.5-1.3l.4.3c0,1.5-.1,2.9-.2,4.2v10.9c0,1.8,0,2.9,0,3.3,0,.3.1.4.3.5.1,0,.7.2,1.7.3v1.1c-1.1,0-2.2,0-3.3,0s-1.5,0-2.2,0l-.2-.2c.1-.9.2-1.7.2-2.3-.6.5-1.6,1.3-3,2.4-.5.2-1,.3-1.5.3-1.5,0-2.8-.6-3.8-1.7-1-1.1-1.5-2.7-1.5-4.6s.1-1.8.3-2.5c.2-.8.5-1.3.7-1.7s.8-.9,1.7-1.5c1.2-.8,2-1.3,2.5-1.5.5-.2,1.1-.3,1.7-.3s.9,0,1.4.1c.5,0,1,.2,1.5.5ZM157.5,143.8c-.4-.6-.9-1.1-1.5-1.4-.6-.3-1.2-.5-1.8-.5s-1.7.3-2.2,1-.8,1.8-.8,3.4.3,2.9.9,3.7,1.4,1.2,2.4,1.2,1.3-.2,1.8-.6c.6-.4.9-.7,1-1,0-.3.1-1.5.1-3.6v-2.3Z"/>
        <path class="cls-6" d="M166.1,153.8v-1.2c1.1,0,1.7-.2,1.9-.3.1,0,.2-.2.2-.3,0-.2.2-1.2.2-2.9,0-1.7,0-3.3,0-4.9,0-3,0-5.1,0-6.3,0-1.3-.2-2-.3-2.1-.1-.1-.5-.2-1.2-.3h-.8v-1.2h1.6c1,0,1.7,0,2.3,0s2.1,0,3.8,0c.9,0,1.6,0,2.1,0,1.7,0,2.9.2,3.7.5.8.3,1.4.8,1.8,1.4.4.6.6,1.4.6,2.4,0,1.7-.6,3.1-1.8,4.3-1.2,1.2-2.8,1.7-4.6,1.7s-.5,0-.8,0-.6,0-.9-.2c-.2-.3-.3-.7-.5-1l.3-.3c.2,0,.4,0,.6.1.2,0,.3,0,.5,0,.9,0,1.7-.3,2.3-1,.6-.6.9-1.5.9-2.7s-.3-2.2-.9-2.9c-.6-.6-1.5-1-2.7-1s-1,0-1.7.2c0,2.8-.1,5.3-.1,7.2s0,2.8.1,6.4c0,1.4,0,2.2.1,2.4,0,.2.1.3.3.3.2.1,1,.2,2.4.3v1.2c-1.6,0-3,0-4.1,0s-2.2,0-5.1,0Z"/>
        <path class="cls-6" d="M179.8,153.8v-1.1c.9,0,1.5-.1,1.6-.2.1,0,.2-.1.3-.3.1-.2.2-.7.2-1.5,0-1.4,0-2.6,0-3.7,0-2.1,0-3.4,0-3.8,0-.2-.1-.4-.2-.5s-.7-.2-1.8-.2v-1.1c1.9-.2,3.2-.4,4-.7l1.4-.5c.1,0,.2,0,.2.3v.2c0,.6,0,1.4,0,2.5.5-.5,1-1,1.6-1.7.4-.5.8-.9,1.1-1,.3-.2.7-.2,1.3-.2s.6,0,.9.2c0,.9-.1,2.2-.2,3.8l-.6.2c-.2-.4-.4-.6-.7-.8-.3-.1-.6-.2-1-.2s-1,.1-1.4.4c-.4.3-.7.6-.8,1,0,.3-.1,1.2-.1,2.8,0,2.3,0,3.7,0,4.1,0,.3.1.4.3.5.2.1.9.2,2.1.3v1.1h-1.6c-1,0-1.8,0-2.6,0s-1.5,0-2.4,0h-1.6Z"/>
        <path class="cls-6" d="M188.6,153.8v-1.1c1,0,1.6-.1,1.8-.2s.3-.4.3-.8c0-.6.1-1.9.1-3.9s0-1.7,0-2.4v-1.6c0-.5,0-.9-.2-1-.1-.1-.4-.2-.9-.2h-1v-1.1c2.2-.2,4.1-.6,5.5-1.2l.3.3c-.1,1.8-.2,4.3-.2,7.7s0,3.1,0,3.5c0,.3.1.5.3.6.1,0,.7.2,1.8.2v1.1c-1.7,0-3,0-3.9,0s-1.8,0-3.9,0ZM192.5,133.6c.6,0,1.1.2,1.5.6s.6.9.6,1.5-.2,1.1-.6,1.5c-.4.4-.9.6-1.5.6s-1.1-.2-1.5-.6c-.4-.4-.6-.9-.6-1.5s.2-1.1.6-1.5.9-.6,1.5-.6Z"/>
        <path class="cls-6" d="M195.1,153.8v-1.1c1,0,1.6-.1,1.7-.2s.2-.3.2-.7c0-.9,0-2.6,0-4.9s0-2.2,0-3c0-.5,0-.8-.1-.9,0,0-.1-.1-.2-.2-.1,0-.6,0-1.6,0v-1.1c.5,0,1.3-.1,2.3-.3,1.1-.2,2-.5,2.7-.7h.4c.1-.1.2,0,.2.2h0c0,.4,0,1.1,0,2.1l2.1-1.8c.3-.2.5-.4.8-.5.4-.1.9-.2,1.5-.2,1,0,1.8.2,2.4.5s1.1.8,1.4,1.4.4,1.5.4,2.8,0,1.2,0,1.9c0,1.5,0,2.8,0,3.9s0,1.1.2,1.3c0,.2.2.3.3.3.1,0,.6.1,1.5.2v1.1h-1.7c0,0-1.1,0-1.1,0h-2.9c0,0-.2,0-.2,0,.2-1.8.4-3.6.4-5.4s-.1-3.8-.4-4.3c-.4-.7-1-1.1-2-1.1s-1.2.2-1.6.5c-.5.3-.8.7-.9,1,0,.1,0,.6,0,1.4,0,3.4,0,5.3,0,5.8,0,.5.1.8.2.9.2.1.8.2,1.9.3v1.1c-1.6,0-3,0-4.1,0s-1.9,0-3.6,0Z"/>
        <path class="cls-6" d="M219.8,145.3h-1.1c0-1.1-.1-1.7-.2-1.9-.1-.3-.4-.5-.8-.7s-1-.3-1.6-.3c-1,0-1.7.3-2.2.8-.5.6-.7,1.6-.7,3s.4,3.3,1.3,4.3c.8,1,1.9,1.5,3.2,1.5s.9,0,1.3-.1c.4,0,.8-.2,1.1-.4l.2.3c-.2.4-.4.9-.6,1.3-.6.3-1.2.5-1.9.7-.6.2-1.3.2-1.9.2-2,0-3.6-.6-4.7-1.7-1.1-1.1-1.7-2.7-1.7-4.8s0-1.4.2-2.1c.1-.6.3-1.1.6-1.6.3-.4.5-.8.8-1,.2-.1,1-.7,2.4-1.5.8-.5,1.4-.8,1.8-1s.9-.2,1.5-.2,1.1,0,1.6.1c.5,0,1,.2,1.5.4l.2.2c-.3,1.5-.5,3-.6,4.2Z"/>
        <path class="cls-6" d="M231,151.1l.4.4-.6,1.3c-.7.4-1.4.7-2.1.9-.8.2-1.6.3-2.4.3-2,0-3.6-.6-4.8-1.8-1.2-1.2-1.7-2.8-1.7-4.9s.2-2.5.5-3.3c.3-.7.7-1.3,1.4-1.8.6-.5,1.4-.9,2.2-1.3.8-.4,1.7-.6,2.7-.6,1.5,0,2.8.4,3.8,1.3,1,.8,1.5,2.2,1.5,4.1s0,.6,0,1.1l-2.3.4c-.7,0-1.7,0-3,0h-3c.1,1.6.6,2.8,1.4,3.6.8.8,1.9,1.2,3.1,1.2s1.1,0,1.6-.2c.5-.2,1-.4,1.5-.7ZM223.3,145.7c.8,0,1.7.1,2.5.1s1.5,0,2.3-.1v-.7c0-1.1-.2-2-.6-2.5-.4-.5-1-.8-1.7-.8s-.9.1-1.3.4-.6.6-.8,1-.3,1.3-.4,2.5Z"/>
        <path class="cls-6" d="M118.1,163.2h.6c0,.7,0,1.1,0,1.2s.2.3.4.5c.2.2.5.3.9.5.4.1.7.2,1.1.2.7,0,1.2-.2,1.6-.5.4-.3.6-.8.6-1.3s-.1-.8-.4-1.1c-.3-.3-.8-.4-1.5-.5-1.1-.2-1.8-.3-2.2-.5s-.7-.5-.9-.8-.3-.8-.3-1.3c0-.9.3-1.6.9-2.2.6-.6,1.6-.9,2.9-.9s1,0,1.4.1c.4,0,.8.2,1.2.4v.2c0,.3,0,.6,0,.8s0,.6,0,1.2h-.6c0-.7,0-1.1-.1-1.2,0-.2-.3-.3-.7-.5-.4-.2-.8-.3-1.2-.3s-1.1.2-1.5.5c-.3.3-.5.7-.5,1.2s0,.6.2.8.3.4.6.5c.3.1.8.2,1.7.4.8.1,1.3.2,1.6.3.4.2.8.5,1,.8.2.4.3.8.3,1.4,0,1-.4,1.8-1.1,2.4-.7.6-1.8,1-3.1,1s-1.1,0-1.6-.2c-.5-.1-1-.3-1.5-.5,0-.3.1-.6.2-.9,0-.4,0-.9,0-1.5Z"/>
        <path class="cls-6" d="M124.6,160.6l.9-.6c0-.8,0-1.5,0-2.2.6-.2,1.2-.4,1.8-.7l.2.2c-.1.7-.2,1.6-.2,2.7.2,0,.4,0,.6,0,.5,0,.9,0,1.3,0h0s0,.3,0,.3c0,.3-.1.5-.2.7-.5,0-.9,0-1.2,0s-.4,0-.6,0c0,.5,0,.9,0,1.2,0,1.6,0,2.4.1,2.7,0,.2.3.3.7.3s.2,0,.3,0c.1,0,.2,0,.4,0v.3c-.2.3-.4.6-.7,1-.2,0-.3,0-.5,0-.1,0-.3,0-.4,0-.4,0-.7,0-1-.2-.3-.1-.5-.3-.6-.5s-.2-.5-.2-1,0-.8,0-1.8c0-.8,0-1.5,0-2h-.4c-.1,0-.3,0-.6,0v-.4Z"/>
        <path class="cls-6" d="M128,160.5v-.5c.7,0,1.4-.2,2.1-.4l.7-.2c0,0,.1,0,.1.2v.4c-.1,1.1-.1,2.1-.1,3.1s0,1.1,0,1.3c0,.2.2.4.4.5.2.1.4.2.7.2s.6,0,.9-.3c.2-.2.4-.4.5-.6s0-.8,0-1.9,0-1.3,0-1.4c0,0,0-.1,0-.2,0,0-.4,0-.9,0v-.5c.9-.1,1.6-.2,2.1-.4l.7-.3c0,0,.1,0,.1.1v.2c0,.8-.1,2.3-.1,4.4s0,1.1,0,1.2c0,0,0,.1.1.2,0,0,.4,0,.9.1v.6c-.5,0-1.1,0-1.6,0s-.8,0-1.2,0h0c0-.4,0-.7,0-1.2-.4.3-.8.7-1.2,1.1-.3.1-.7.2-1,.2s-.8,0-1.1-.3c-.3-.2-.5-.4-.7-.7s-.2-.7-.2-1.2v-.8c0-.5,0-.8,0-1.1,0-.8,0-1.3,0-1.5,0-.1,0-.2-.1-.2,0,0-.4,0-.9,0Z"/>
        <path class="cls-6" d="M140.6,159.7v-1.2c0-.7,0-1.2,0-1.3,0,0,0-.1-.1-.2,0,0-.4,0-.9,0v-.5c1.1-.1,2-.3,2.8-.7l.2.2c0,.7,0,1.5,0,2.1v5.5c0,.9,0,1.5,0,1.7,0,.1,0,.2.1.3,0,0,.4,0,.9.1v.6c-.6,0-1.1,0-1.7,0s-.8,0-1.1,0h-.1c0-.6,0-.9.1-1.2-.3.2-.8.6-1.5,1.2-.3,0-.5.1-.7.1-.8,0-1.4-.3-1.9-.9-.5-.6-.8-1.3-.8-2.3s0-.9.2-1.3c.1-.4.2-.7.4-.9.1-.2.4-.4.9-.7.6-.4,1-.7,1.3-.8.3-.1.6-.2.9-.2s.5,0,.7,0c.2,0,.5.1.7.2ZM140.6,161.2c-.2-.3-.5-.5-.7-.7-.3-.2-.6-.2-.9-.2s-.8.2-1.1.5c-.3.3-.4.9-.4,1.7s.2,1.4.5,1.8c.3.4.7.6,1.2.6s.6,0,.9-.3c.3-.2.4-.4.5-.5,0-.2,0-.8,0-1.8v-1.2Z"/>
        <path class="cls-6" d="M142.7,166.2v-.6c.5,0,.8,0,.9,0,0,0,.1-.2.2-.4,0-.3,0-.9,0-1.9s0-.8,0-1.2v-.8c0-.3,0-.4-.1-.5,0,0-.2,0-.5-.1h-.5v-.6c1.1,0,2-.3,2.8-.6h.2c0,1-.1,2.3-.1,4s0,1.6,0,1.8c0,.1,0,.2.1.3s.4,0,.9.1v.6c-.8,0-1.5,0-1.9,0s-.9,0-2,0ZM144.6,156.1c.3,0,.5.1.8.3s.3.5.3.8-.1.5-.3.8c-.2.2-.5.3-.8.3s-.5-.1-.8-.3-.3-.5-.3-.8.1-.6.3-.8c.2-.2.5-.3.8-.3Z"/>
        <path class="cls-6" d="M146.1,162.9c0-1.1.3-1.9.8-2.5.6-.7,1.5-1,2.7-1s2,.3,2.5.8.8,1.4.8,2.5-.3,2.1-.9,2.7-1.5.9-2.6.9-1.9-.3-2.4-.9c-.6-.6-.8-1.4-.8-2.6ZM148,162.4c0,1.2.2,2.1.5,2.6.2.4.6.6,1.1.6s.8-.2,1-.5c.2-.3.4-1,.4-1.9s-.1-2.1-.4-2.6c-.2-.4-.6-.6-1.1-.6s-.8.2-1,.5c-.2.3-.4.9-.4,1.8Z"/>
      </g>
      <g>
        <path class="cls-4" d="M103.8,167.2c0-3.6-3.7-8.3-8.2-8.3s-8.2,4.7-8.2,8.3h16.4Z"/>
        <g>
          <path class="cls-2" d="M98.5,133.4l10.7,7.7,2.8,16.1c0,1.1-.8,2.1-1.9,2.1l-8.7-2.2c-2.3-2.4-3.7-5-4.6-7-3,4.1-3.5,10.8-1.6,15.2h-18.1c.2-6,1.6-10.3,2.8-13.5-.6-2.8-1.2-5.5-1.8-8.3l6.3-3c-.2-2.6-.5-5.2-.7-7.8l7.5,1.2,7.1-.6Z"/>
          <path class="cls-1" d="M102.4,139.6l5.6,11.4h-4.1c-.2-.1-.7-.4-1.2-1-.5-.8-.7-1.7-.7-2.1v-8.3h.4Z"/>
        </g>
        <g>
          <path class="cls-3" d="M79.3,153.1c1.8,1.7,4.3,3.7,7.3,5.5,3.7,2.2,7.1,3.5,9.8,4.3l.3,4.4h-13.4c-1-.8-2.5-2.2-3.7-4.3-1-1.7-2.1-2.9-2.4-4l2.1-5.8Z"/>
          <path class="cls-7" d="M83.3,167.2c0-4.6-3.8-8.3-8.4-8.3s-8.4,3.7-8.4,8.3h16.8Z"/>
        </g>
        <polygon class="cls-5" points="98.5 133.4 103.3 133.4 103.9 137.3 109.1 135.8 109.1 141.1 98.5 133.4"/>
      </g>
    </g>
  </g>
</svg>