<?xml version="1.0" encoding="UTF-8"?>
<svg id="_Слой_1" data-name="Слой 1" xmlns="http://www.w3.org/2000/svg" version="1.1" viewBox="0 0 800 800">
  <defs>
    <style>
      .cls-1 {
        fill: #eacea9;
      }

      .cls-1, .cls-2, .cls-3, .cls-4 {
        stroke-width: 0px;
      }

      .cls-2 {
        fill: #f8f1e7;
      }

      .cls-3 {
        fill: #f58d50;
      }

      .cls-4 {
        fill: #1e1a1b;
      }
    </style>
  </defs>
  <rect class="cls-4" width="800" height="800"/>
  <rect class="cls-2" x="242" y="-295" width="37" height="32"/>
  <g>
    <g>
      <path class="cls-3" d="M400,583.8c-5.6-2.7-11.2-5.8-16.5-9.1-1.8-1.8-62.9-62.7-62.9-62.7-41.6-41.4-49.8-105.7-20-156.3l70.8-120c5.5-9.3,14.3-16,24.6-18.9l-56.8,142.2c-19.8,49.4-2.9,104.9,41.1,135l19.8,13.5,19.8-13.5c44-30,60.9-85.5,41.1-135l-56.8-142.2c10.3,2.9,19.1,9.7,24.6,18.9l70.8,120c29.8,50.6,21.6,114.8-20,156.3l-62.9,62.7c-5.3,3.3-10.9,6.3-16.5,9.1Z"/>
      <path class="cls-1" d="M408.5,221.1c7.5,3.3,13.8,8.8,18,16l70.8,120c29.2,49.6,21.2,112.6-19.6,153.2l-43.8,43.6c-10.1,10.1-17.2,17.2-19,18.9-4.8,3-9.8,5.8-14.9,8.3-5.1-2.5-10.1-5.3-14.9-8.3-1.6-1.6-7.6-7.6-16.4-16.3l-46.3-46.2c-40.8-40.6-48.9-103.6-19.6-153.2l70.8-120c4.2-7.1,10.6-12.7,18-16l-54.8,137c-20.2,50.5-2.9,107.3,42.1,138l18.4,12.5,2.8,1.9,2.8-1.9,18.4-12.5c45-30.7,62.3-87.4,42.1-138l-54.8-137M400,213.4l-1.4.3c-12.3,2.5-23,10.1-29.4,20.9l-70.8,120c-30.4,51.5-22,117.1,20.4,159.3,32.6,32.4,63.1,62.9,63.1,62.9,7.2,4.5,13.5,7.7,18,9.9,4.6-2.2,10.9-5.4,18-9.9,0,0,30.6-30.5,63.1-62.9,42.4-42.2,50.8-107.8,20.4-159.3l-70.8-120c-6.4-10.8-17.1-18.4-29.4-20.9l-1.4-.3,58.6,146.6c19.2,48,2.5,102.8-40.2,132l-18.4,12.5-18.4-12.5c-42.7-29.1-59.4-84-40.2-132l58.6-146.6h0Z"/>
    </g>
    <circle class="cls-4" cx="377.1" cy="536.2" r="6.2"/>
    <circle class="cls-4" cx="423" cy="536.2" r="6.2"/>
  </g>
</svg>