<?xml version="1.0" encoding="UTF-8"?>
<svg id="_Слой_1" data-name=" Слой 1" xmlns="http://www.w3.org/2000/svg" version="1.1" viewBox="0 0 800 800">
  <defs>
    <style>
      .cls-1 {
        stroke: #000;
      }

      .cls-1, .cls-2 {
        stroke-miterlimit: 10;
      }

      .cls-1, .cls-3 {
        fill: #fff;
      }

      .cls-2 {
        fill: none;
        stroke: #0a2f5c;
        stroke-width: 6px;
      }

      .cls-3, .cls-4 {
        stroke-width: 0px;
      }

      .cls-4 {
        fill: #0a2f5c;
      }
    </style>
  </defs>
  <rect class="cls-1" x="0" width="800" height="800"/>
  <path class="cls-4" d="M356.6,282.6c14,3.5,47.1,13.4,73.8,39.9,18.7,18.5,26.4,37.3,29.8,48.4-47.3.3-94.5.6-141.8.9,25.4-4,45.8-19,52.6-38.7,9.5-27.4-12.7-48.9-14.4-50.5h0Z"/>
  <g>
    <path class="cls-4" d="M192.9,443l19.6-50.7h10.1l19.8,50.7h-10.7l-16.2-44.8h4.1l-16.2,44.8h-10.5ZM202.8,432.2l2.6-8.9h22.9l2.7,8.9h-28.2Z"/>
    <path class="cls-4" d="M243.6,443v-50.7h10.2v50.7h-10.2ZM250.8,422.6v-9.8h15.4v9.8h-15.4ZM267.7,419l-9.5-1.3,14.4-25.4h10.9l-15.8,26.7h0ZM272.2,443l-13.7-24.4,8.3-5.7,17.1,30.1h-11.7,0Z"/>
    <path class="cls-4" d="M284.1,443v-50.7h20.6c5.1,0,9.1,1.1,12,3.4s4.3,5.5,4.3,9.7-1.4,7.4-4.1,9.7-6.3,3.4-10.7,3.4l1.2-3c4.9,0,8.8,1.1,11.5,3.4s4.1,5.6,4.1,9.9-1.4,7.9-4.3,10.5c-2.9,2.5-7.1,3.8-12.8,3.8h-21.8ZM294.2,413.3h9.6c2.2,0,3.9-.5,5-1.6,1.2-1.1,1.7-2.6,1.7-4.6s-.6-3.6-1.7-4.6c-1.2-1-2.8-1.6-5-1.6h-9.6v12.3h0ZM294.2,434.3h11.3c2.4,0,4.1-.5,5.4-1.6,1.2-1.1,1.8-2.7,1.8-4.9s-.6-3.8-1.8-4.8c-1.2-1-3-1.6-5.4-1.6h-11.3v12.8h0Z"/>
    <path class="cls-4" d="M321.4,443l19.6-50.7h10.1l19.8,50.7h-10.7l-16.2-44.8h4.1l-16.2,44.8h-10.5,0ZM331.3,432.2l2.6-8.9h22.9l2.7,8.9h-28.2Z"/>
    <path class="cls-4" d="M372.1,443v-50.7h8.5l18.8,35.8h-4.4l18.4-35.8h8.5v50.7h-9.5v-33.8h1.8l-14.8,28.4h-4.6l-15-28.4h2.1v33.8h-9.8Z"/>
    <path class="cls-4" d="M423.2,443l19.6-50.7h10.1l19.8,50.7h-10.7l-16.2-44.8h4.1l-16.2,44.8h-10.5,0ZM433.1,432.2l2.6-8.9h22.9l2.7,8.9h-28.2Z"/>
    <path class="cls-4" d="M474,443v-50.7h19.1c4,0,7.4.7,10.2,2.2,2.9,1.5,5.1,3.6,6.6,6.3,1.6,2.8,2.3,6,2.3,9.8s-.8,7.1-2.3,9.8c-1.6,2.7-3.8,4.8-6.6,6.3-2.9,1.5-6.3,2.2-10.2,2.2h-13.5l4.7-5.3v19.3h-10.3ZM484.3,425.1l-4.7-5.6h12.9c3.1,0,5.5-.8,7.1-2.3s2.4-3.7,2.4-6.5-.8-5-2.4-6.5-4-2.3-7.1-2.3h-12.9l4.7-5.6v28.8Z"/>
    <path class="cls-4" d="M514.3,443v-50.7h10.1v33.1l21.2-33.1h9.6v50.7h-10.1v-33l-21.1,33h-9.7Z"/>
    <path class="cls-4" d="M561.4,443v-50.7h10.3v50.7h-10.3ZM570.9,422.2v-9.9h21.6v9.9h-21.6ZM591.8,443v-50.7h10.2v50.7h-10.2Z"/>
  </g>
  <g>
    <path class="cls-4" d="M451.5,389.3c-1.5,0-3,0-4.6-.1-11.6-.6-17.5-2.9-23.2-5.1s-11-4.3-22.1-4.5h-1.4c-11.3,0-17.6,2.2-24.3,4.6-6.9,2.4-14,4.9-26.7,5h-.6c-12.2,0-18.5-2.4-24.6-4.7-5.9-2.2-11.9-4.5-23.8-4.9h-2.6c-11.6,0-19.1,2.2-27,4.6s-16,4.8-28.7,5h-2.2c-15.2,0-30.6-3.3-45.6-9.8l-1.2-.5v-24l2.8,1.1c14.8,6,30.4,9.3,46.3,9.7h3.5c18.1,0,36.4-3.8,53.1-11.1l.8-.4.8.4c15.3,7.1,32.2,10.9,49,11.1h.9c17.1,0,34.4-3.8,49.9-11.1l.8-.4.8.4c14.9,6.8,30.8,10.6,47.1,11.1h3.7c17.4,0,35-3.8,50.9-11.1l.8-.4.8.4c15.9,7.4,33.5,11.3,50.9,11.3h0c16.6,0,32.7-3.3,47.9-9.9l2.8-1.2v24l-1.2.5c-15.1,6.5-30.5,9.8-45.7,9.8s-2.7,0-4.1,0c-11.8-.5-18.8-2.7-25.6-4.9-6.8-2.2-13.2-4.3-24.5-4.6h-2.6c-11.9,0-18.8,2.4-26,4.9-7,2.4-14.2,4.9-25.9,4.9h.5Z"/>
    <path class="cls-3" d="M504.4,356.6c9.8,4.5,28,11.5,51.7,11.5h0c22,0,39.1-5.9,48.7-10.1v19.7c-10.4,4.5-26,9.7-44.9,9.7s-2.6,0-4,0c-23.2-.9-27.1-8.9-50.1-9.6h-2.7c-24.2,0-29,9.7-52,9.7s-2.9,0-4.5-.1c-23-1.2-22.9-9.2-45.3-9.6h-1.4c-23.5,0-26.5,9.4-51,9.6h-.6c-23.5,0-23.8-8.9-48.4-9.6h-2.7c-23.8,0-30.7,9.1-55.7,9.6h-2.1c-18.7,0-34.2-5-44.8-9.6v-19.7c10.3,4.2,26.5,9.3,46.9,9.8h3.6c24.3,0,43.3-6.7,53.9-11.3,9.5,4.4,27,11.1,49.8,11.2h1c23.4,0,41.3-6.8,50.8-11.2,9.7,4.5,26.4,10.6,47.9,11.2h3.8c23.7,0,42-6.9,51.8-11.3M609,351.9l-5.6,2.4c-15,6.5-30.9,9.8-47.2,9.8h0c-17.2,0-34.5-3.9-50.1-11.1l-1.7-.8-1.7.8c-15.7,7.2-33,10.9-50.1,10.9s-2.5,0-3.7,0c-16.1-.5-31.7-4.2-46.4-10.9l-1.7-.8-1.7.8c-15.3,7.1-32.3,10.9-49.1,10.9s-.6,0-.9,0c-16.5-.1-33.2-3.9-48.2-10.9l-1.6-.8-1.7.7c-16.4,7.2-34.5,11-52.3,11s-2.3,0-3.5,0c-15.6-.4-31-3.6-45.6-9.5l-5.5-2.2v28.2l2.4,1c15.3,6.6,30.9,9.9,46.4,9.9s1.5,0,2.2,0c12.9-.3,21.2-2.7,29.2-5.1,7.7-2.3,15-4.5,26.4-4.5h2.6c11.5.3,17.1,2.5,23.1,4.7,6.3,2.4,12.8,4.9,25.4,4.9h.6c13,0,20.3-2.6,27.4-5.1,6.5-2.3,12.7-4.5,23.6-4.5h1.3c10.7.2,15.6,2.1,21.4,4.3,5.6,2.2,11.9,4.6,23.8,5.2,1.6,0,3.2.1,4.7.1,12,0,19.4-2.5,26.6-5,7.1-2.4,13.8-4.7,25.4-4.7h2.6c11,.3,17.3,2.4,23.9,4.5,6.9,2.2,14,4.6,26.1,5h4.1c15.5,0,31.1-3.4,46.5-10l2.4-1v-28.4h0l.3.2Z"/>
  </g>
  <g>
    <path class="cls-4" d="M255.3,470.6v1.7h-6.8v-1.7h.8c.5,0,.9-.2,1.3-.5.3-.3.5-.8.5-1.3v-12.4c0-.5-.2-.9-.5-1.3-.3-.3-.8-.5-1.3-.5h-.8v-1.7h18.9v1.8h-.8c-.2,0-.4,0-.6.2s-.2.4-.2.6v14.3c0,.2,0,.4.2.6s.4.2.6.3h.8v1.7h-6.8v-1.8h.8c.2,0,.4,0,.6-.2s.2-.4.2-.6v-14.3c0-.5-.3-.8-.9-.8h-6.8c-.5,0-.9.2-1.3.5-.3.3-.5.8-.5,1.3v12.4c0,.5.2.9.5,1.3.3.3.8.5,1.3.5h.8,0Z"/>
    <path class="cls-4" d="M279.6,452.9h.7c0,.1.1.1.2.2,1.2.3,2.3.9,3.3,1.9s1.2,1.5,1.5,2.3.5,1.8.5,2.7-.2,1.8-.5,2.7-.9,1.7-1.5,2.4c-.8.8-1.8,1.4-2.9,1.8h-.4c-.6.2-1.1.3-1.7.3s-1.1,0-1.7-.2h0c-1.2-.3-2.3-1-3.3-1.9h0v4.8c0,.2,0,.4.2.6s.4.2.6.3h.8v1.7h-6.8v-1.8h.8c.5,0,.8-.3.8-.7v-14.3c0-.2,0-.4-.2-.6s-.4-.2-.6-.2h-.8v-1.7h11.2l-.2-.3ZM273.6,455.5v6.2c.3.8.7,1.5,1.3,2.1,1.1,1.1,2.3,1.6,3.8,1.6s2.7-.5,3.8-1.6c.4-.4.6-1,.6-1.8s0-.7-.1-1c-.3-1.4-1.1-2.7-2.3-3.9-1.2-1.1-2.4-1.9-3.7-2.3h-2.5c-.2,0-.4,0-.6.2s-.2.4-.2.6h0Z"/>
    <path class="cls-4" d="M302.4,468v4.3h-15.8v-1.8h.8c.2,0,.4,0,.6-.2s.2-.4.2-.6v-14.3c0-.5-.3-.8-.8-.8h-.8v-1.7h15.8v4.3h-1.7v-.8c0-.5-.2-.9-.5-1.3-.3-.3-.8-.5-1.3-.5h-6.3c-.2,0-.4,0-.6.3s-.2.4-.2.6v6.3h4.9c.5,0,.9-.2,1.3-.5s.5-.8.5-1.3v-.8h1.7v6.8h-1.7v-.8c0-.5-.2-.9-.5-1.3-.3-.3-.8-.5-1.3-.5h-4.9v6.3c0,.2,0,.4.2.6s.4.2.6.3h6.3c.5,0,.9-.2,1.3-.5s.5-.8.5-1.3v-.8h1.7,0Z"/>
    <path class="cls-4" d="M303,452.8h4.8l.5,1v.2c.1,0,5.8,11,5.8,11l5.2-9.9.3-.6.8-1.6h3.9v1.8h-.8c-.2,0-.4,0-.6.2s-.2.4-.2.6v14.3c0,.2,0,.4.2.6s.4.2.6.3h.8v1.7h-6.8v-1.8h.8c.2,0,.4,0,.6-.2s.2-.4.2-.6v-10.7l-4.3,8.2-.3.6h0l-1.4,2.7-5.9-11.3v9.6c0,.5.2.9.5,1.3.3.3.8.5,1.3.5h.8v1.7h-6.8v-1.7h.8c.5,0,.9-.2,1.2-.5.3-.3.5-.8.5-1.3v-12.4c0-.5-.2-.9-.5-1.3-.3-.3-.8-.5-1.2-.5h-.8v-1.9Z"/>
    <path class="cls-4" d="M340.6,458l-10.4,14.2h-4.8v-1.7h.8c.5,0,.9-.2,1.3-.5.3-.3.5-.8.5-1.3v-12.4c0-.5-.2-.9-.5-1.3-.3-.3-.8-.5-1.3-.5h-.8v-1.7h6.8v1.7h-.8c-.5,0-.9.2-1.3.5s-.5.8-.5,1.3v10.8l9.8-13.4.6-.9h4.8v1.7h-.8c-.5,0-.9.2-1.3.5-.3.4-.5.8-.5,1.3v12.4c0,.5.2.9.5,1.3.3.3.8.5,1.2.5h.8v1.7h-6.8v-1.7h.8c.5,0,.9-.2,1.3-.5.3-.3.5-.8.5-1.3v-10.7h0Z"/>
    <path class="cls-4" d="M359.1,467.4v-1.2c-.5.3-1,.6-1.6.7h-.1c-.7.2-1.4.3-2.1.3s-1.5-.1-2.2-.3h0c-.8-.3-1.6-.7-2.3-1.3h0l-.9-.9c-.4-.4-.7-1-1-1.6-.3-.7-.5-1.5-.6-2.4v-4.3c0-.5-.2-.9-.6-1.3s-.8-.5-1.3-.5h-.8v-1.7h6.9v1.7h-.8c-.5,0-.9.2-1.2.5-.3.3-.5.6-.5,1v2.2h0c.3,1.5,1.1,2.8,2.4,4.1.8.7,1.6,1.3,2.5,1.7.8.4,1.7.6,2.4.6s1.4-.2,1.9-.7v-8.6c0-.5-.3-.8-.8-.9h-.8v-1.7h6.9v1.8h-.8c-.2,0-.4,0-.6.2s-.2.4-.2.6v6.8c0,.7,0,1.4-.2,2.2-.1.8-.3,1.7-.6,2.5-.3.9-.8,1.7-1.3,2.4-.5.7-1.1,1.2-1.8,1.7h-.2c-.3.3-.5.5-.8.6h0s-.1,0-.2.1c-.4.2-.7.3-1.1.4-.4,0-.8.1-1.2.1s-.2,0-.3,0h-1.7c-.8-.2-1.5-.3-2.3-.3h0c-.4,0-.7,0-1,.1-.2,0-.4.2-.5.3h0l-1.3,1.1v-1.7c.1-1.3.7-2.2,1.7-2.9.2-.1.4-.2.5-.3.4-.1.8-.2,1.2-.2s.9,0,1.4.2h.5c.2,0,.4.1.6.2.4.2.8.3,1.2.4h1c.6,0,1.2,0,1.8-.3h.3c.3-.1.5-.3.6-.5.1-.1.2-.5.3-1h-.4Z"/>
    <path class="cls-4" d="M364.8,452.8h4.8l.5,1v.2c.1,0,5.8,11,5.8,11l5.2-9.9.3-.6.8-1.6h3.9v1.8h-.8c-.2,0-.4,0-.6.2s-.2.4-.2.6v14.3c0,.2,0,.4.2.6s.4.2.6.3h.8v1.7h-6.8v-1.8h.8c.2,0,.4,0,.6-.2s.2-.4.2-.6v-10.7l-4.3,8.2-.3.6h0l-1.4,2.7-5.9-11.3v9.6c0,.5.2.9.5,1.3.3.3.8.5,1.3.5h.8v1.7h-6.8v-1.7h.8c.5,0,.9-.2,1.2-.5.3-.3.5-.8.5-1.3v-12.4c0-.5-.2-.9-.5-1.3-.3-.3-.8-.5-1.2-.5h-.8v-1.9Z"/>
    <path class="cls-4" d="M400,470.6v1.7h-6.8v-1.7h.8c.5,0,.9-.2,1.3-.5.3-.3.5-.8.5-1.3v-12.4c0-.5-.2-.9-.5-1.3-.3-.3-.8-.5-1.3-.5h-.8v-1.7h18.9v1.8h-.8c-.2,0-.4,0-.6.2s-.2.4-.2.6v14.3c0,.2,0,.4.2.6s.4.2.6.3h.8v1.7h-6.8v-1.8h.8c.2,0,.4,0,.6-.2s.2-.4.2-.6v-14.3c0-.5-.3-.8-.8-.8h-6.8c-.5,0-.9.2-1.3.5-.3.3-.5.8-.5,1.3v12.4c0,.5.2.9.5,1.3.3.3.8.5,1.3.5h.8-.1Z"/>
    <path class="cls-4" d="M424.3,452.9h.7c0,.1.1.1.2.2,1.2.3,2.3.9,3.3,1.9s1.2,1.5,1.5,2.3.5,1.8.5,2.7-.2,1.8-.5,2.7-.9,1.7-1.5,2.4c-.8.8-1.8,1.4-2.9,1.8h-.4c-.6.2-1.1.3-1.7.3s-1.1,0-1.7-.2h0c-1.2-.3-2.3-1-3.3-1.9h0v4.8c0,.2,0,.4.2.6s.4.2.6.3h.8v1.7h-6.8v-1.8h.8c.5,0,.8-.3.8-.7v-14.3c0-.2,0-.4-.2-.6s-.4-.2-.6-.2h-.8v-1.7h11.2l-.2-.3ZM418.3,455.5v6.2c.3.8.7,1.5,1.3,2.1,1.1,1.1,2.3,1.6,3.8,1.6s2.7-.5,3.8-1.6c.4-.4.6-1,.6-1.8s0-.7-.1-1c-.3-1.4-1.1-2.7-2.3-3.9-1.2-1.1-2.4-1.9-3.7-2.3h-2.5c-.2,0-.4,0-.6.2s-.2.4-.2.6h0Z"/>
    <path class="cls-4" d="M448.1,469.7c-.9.9-2,1.7-3.2,2.2s-2.4.7-3.8.7-2.6-.2-3.8-.7-2.3-1.2-3.2-2.2c-.9-.9-1.7-2-2.1-3.2-.5-1.2-.7-2.5-.7-3.8s.2-2.6.7-3.8c.5-1.2,1.2-2.3,2.1-3.2.9-.9,2-1.7,3.2-2.2s2.4-.7,3.8-.7,2.6.2,3.8.7c1.2.5,2.3,1.2,3.2,2.2.9.9,1.6,2,2.1,3.2s.7,2.5.7,3.8-.2,2.6-.7,3.8c-.5,1.2-1.2,2.3-2.1,3.2ZM439.3,455.4c-1.5,0-2.8.5-3.9,1.5-1,1-1.5,2.3-1.5,3.9s0,.6,0,.8c.3,2,1.2,3.8,2.8,5.5.9.9,1.9,1.6,3,2.1s2.2.7,3.3.7c1.6,0,2.8-.5,3.9-1.5,1-1.1,1.5-2.3,1.5-3.9s0-.6,0-.9c-.3-2-1.2-3.8-2.8-5.4-.9-.9-1.9-1.6-3-2.1s-2.2-.7-3.3-.7Z"/>
    <path class="cls-4" d="M451.1,470.6h1.6c.9,0,1.7-.4,2.3-1s1-1.3,1.1-2.2v-.4h0v-1.5h0l.5-9.2h0c.1-1.5.8-2.6,2.1-3.2.4-.2.8-.3,1.3-.3h8.7v1.8h-.8c-.5,0-.8.3-.8.8v14.3c0,.2,0,.4.2.6s.4.2.6.3h3v4.3h-1.7v-.8c0-.5-.2-.9-.5-1.3s-.8-.5-1.3-.5h-13c-.5,0-.9.2-1.3.5s-.5.8-.5,1.3v.8h-1.7v-4.3h.2ZM456.7,470.2h0v.2h6.4c.2,0,.4,0,.6-.3s.2-.4.2-.6v-14.7h0c-.2-.3-.4-.5-.8-.5h-.8c-.8,0-1.6.4-2.3,1.3-.7.9-1.2,2.1-1.4,3.5,0,1.2-.3,3.8-.5,7.6v.7h0v.4h0v.2h0v.2h0v.2h0v.2h0c0,.2,0,.1,0,.1h0c0,.1-1.4,1.5-1.4,1.5Z"/>
    <path class="cls-4" d="M484.8,467.4v-1.2c-.5.3-1,.6-1.6.7h-.1c-.7.2-1.4.3-2.1.3s-1.5-.1-2.2-.3h0c-.8-.3-1.6-.7-2.3-1.3h0l-.9-.9c-.4-.4-.7-1-1-1.6-.3-.7-.5-1.5-.6-2.4v-4.3c0-.5-.2-.9-.6-1.3s-.8-.5-1.3-.5h-.8v-1.7h6.9v1.7h-.8c-.5,0-.9.2-1.2.5-.3.3-.5.6-.5,1v2.2h0c.3,1.5,1.1,2.8,2.4,4.1.8.7,1.6,1.3,2.5,1.7.8.4,1.7.6,2.4.6s1.4-.2,1.9-.7v-8.6c0-.5-.3-.8-.8-.9h-.8v-1.7h6.9v1.8h-.8c-.2,0-.4,0-.6.2s-.2.4-.2.6v6.8c0,.7,0,1.4-.2,2.2-.1.8-.3,1.7-.6,2.5-.3.9-.8,1.7-1.3,2.4-.5.7-1.1,1.2-1.8,1.7h-.2c-.3.3-.5.5-.8.6h0s-.1,0-.2.1c-.4.2-.7.3-1.1.4-.4,0-.8.1-1.2.1s-.2,0-.3,0h-1.7c-.8-.2-1.5-.3-2.3-.3h0c-.4,0-.7,0-1,.1-.2,0-.4.2-.5.3h0l-1.3,1.1v-1.7c.1-1.3.7-2.2,1.7-2.9.2-.1.4-.2.5-.3.4-.1.8-.2,1.2-.2s.9,0,1.4.2h.5c.2,0,.4.1.6.2.4.2.8.3,1.2.4h1c.6,0,1.2,0,1.8-.3h.3c.3-.1.5-.3.6-.5.1-.1.2-.5.3-1h-.4Z"/>
    <path class="cls-4" d="M490.4,470.5h.8c.2,0,.4,0,.6-.2s.2-.4.2-.6v-14.3c0-.5-.3-.8-.8-.8h-.8v-1.7h6.8v1.8h-.8c-.2,0-.4,0-.6.2s-.2.4-.2.6v5h3.3c.3,0,.6,0,.8-.2.3,0,.5-.2.8-.3.2-.1.5-.3.7-.4l.6-.6c.2-.2.4-.4.5-.7.2-.2.3-.5.4-.7.1-.3.2-.5.2-.8v-.4h0c0-.2,0-.4-.1-.5,0-.2-.2-.4-.4-.6-.2-.2-.4-.3-.6-.4s-.5-.1-.7-.1h-.8v-1.7h6.8v1.7h-1.3c-.2,0-.5.2-.7.3-.2.2-.3.4-.5.6,0,.1,0,.2-.1.4v.8h0c-.2,1.2-.7,2.2-1.5,3.1-.3.4-.6.7-1,1,.5.2,1,.5,1.4.8.8.6,1.4,1.3,1.8,2.2.4.8.6,1.7.6,2.7v3.2c0,.2,0,.4.2.6s.4.3.6.3h.8v1.7h-6.8v-1.8h.8c.2,0,.4,0,.6-.2s.2-.4.2-.6v-3.2c0-1.1-.3-2.2-.8-3.1-.5-.8-1.1-1.2-1.7-1.3h-4.2v7.6c0,.2,0,.4.2.6s.4.3.6.3h.8v1.7h-6.8v-2Z"/>
    <path class="cls-4" d="M508.3,452.8h16.7v4.3h-1.7v-.8c0-.5-.2-.9-.5-1.3s-.8-.5-1.3-.5h-2.2c-.2,0-.4,0-.6.3-.2.2-.2.4-.2.6v14.3c0,.5.3.8.8.9h.8v1.7h-6.8v-1.8h.8c.2,0,.4,0,.6-.2.2-.2.2-.4.2-.6v-14.4c0-.5-.3-.8-.8-.8h-2.2c-.5,0-.9.2-1.3.5-.3.3-.5.8-.5,1.3v.8h-1.7v-4.3h0Z"/>
    <path class="cls-4" d="M535.5,458c1.3,0,2.4.3,3.4,1,1,.6,1.9,1.5,2.5,2.6s.9,2.3.9,3.6-.3,2.3-.8,3.3-1.2,1.9-2.1,2.5c-.9.7-1.9,1.1-3.1,1.2h-10.9v-1.8h.8c.2,0,.4,0,.6-.2s.2-.4.2-.6v-14.3c0-.5-.3-.8-.8-.8h-.8v-1.7h6.6v1.8h-.8c-.2,0-.4,0-.5.2s-.2.4-.2.6v4.8c.3-.3.6-.6,1-.9,1.2-.8,2.5-1.2,3.9-1.2h0ZM530.6,463.5v6.2c0,.2,0,.4.2.6s.3.3.6.3h4.1c1.4,0,2.6-.5,3.7-1.6.5-.5.7-1.2.7-2v-.8c-.2-1.3-.9-2.5-1.9-3.5-.6-.7-1.3-1.2-2-1.5s-1.4-.5-2.1-.5-1.4.2-1.8.7c-.6.6-1,1.3-1.3,2.1h-.2ZM541.9,454.6v-1.8h6.6v1.8h-.8c-.2,0-.4,0-.6.2s-.2.4-.2.6v14.3c0,.2,0,.4.2.6s.3.2.6.3h.8v1.7h-6.6v-1.8h.8c.2,0,.4,0,.6-.2s.2-.4.2-.6v-14.3c0-.5-.3-.8-.8-.8h-.8Z"/>
  </g>
  <path class="cls-2" d="M532,373h-264.1c0-69.9,59.6-127.5,132-127.5s132,57.5,132,127.5h0Z"/>
</svg>