<?xml version="1.0" encoding="UTF-8"?>
<svg id="_Слой_1" data-name="Слой 1" xmlns="http://www.w3.org/2000/svg" version="1.1" viewBox="0 0 800 800">
  <defs>
    <style>
      .cls-1 {
        fill: #b78732;
      }

      .cls-1, .cls-2, .cls-3, .cls-4 {
        stroke-width: 0px;
      }

      .cls-2 {
        fill: #c99735;
      }

      .cls-5 {
        fill: none;
        stroke: #231f20;
        stroke-miterlimit: 10;
        stroke-width: 5px;
      }

      .cls-3 {
        fill: #231f20;
      }

      .cls-4 {
        fill: #d52a3c;
      }
    </style>
  </defs>
  <rect class="cls-3" width="800" height="800"/>
  <g>
    <path class="cls-1" d="M500.2,428.9h-11.2v33.6c3.1,3.4,6.2,6.8,9.3,10.3,2.7-.7,5.9-1.8,9.3-3.7,7.3-4.1,11.7-9.6,14-13.1-5.4-3.6-10.9-7.1-16.3-10.7l-1.9,10.2,3.3,2.3-6.4,2.6-.2-31.5Z"/>
    <path class="cls-2" d="M377.3,367.9h-11.2v33.6c3.1,3.4,6.2,6.8,9.3,10.3,2.7-.7,5.9-1.8,9.3-3.7,7.3-4.1,11.7-9.6,14-13.1-5.4-3.6-10.9-7.1-16.3-10.7l-1.9,10.2,3.3,2.3-6.4,2.6-.2-31.5Z"/>
    <path class="cls-1" d="M342.1,359.8h-11.2v33.6c3.1,3.4,6.2,6.8,9.3,10.3,2.7-.7,5.9-1.8,9.3-3.7,7.3-4.1,11.7-9.6,14-13.1-5.4-3.6-10.9-7.1-16.3-10.7l-1.9,10.2,3.3,2.3-6.4,2.6-.2-31.5Z"/>
    <path class="cls-2" d="M536.4,432.5h-11.2v33.6c3.1,3.4,6.2,6.8,9.3,10.3,2.7-.7,5.9-1.8,9.3-3.7,7.3-4.1,11.7-9.6,14-13.1-5.4-3.6-10.9-7.1-16.3-10.7l-1.9,10.2,3.3,2.3-6.4,2.6-.2-31.5Z"/>
    <path class="cls-2" d="M425.7,224.4h-11.2v33.6c3.1,3.4,6.2,6.8,9.3,10.3,2.7-.7,5.9-1.8,9.3-3.7,7.3-4.1,11.7-9.6,14-13.1-5.4-3.6-10.9-7.1-16.3-10.7l-1.9,10.2,3.3,2.3-6.4,2.6-.2-31.5Z"/>
    <path class="cls-1" d="M391.4,219.4h-11.2v33.6c3.1,3.4,6.2,6.8,9.3,10.3,2.7-.7,5.9-1.8,9.3-3.7,7.3-4.1,11.7-9.6,14-13.1-5.4-3.6-10.9-7.1-16.3-10.7l-1.9,10.2,3.3,2.3-6.4,2.6-.2-31.5Z"/>
    <path class="cls-2" d="M584.1,279c-4.6-3.3-9.8-6.7-15.6-9.8-5.1-2.7-9.8-4.8-14.1-6.4,2.9,10.1,5.9,20.2,8.8,30.2,2-2.8,4.9-6.2,8.9-9,4.5-3.1,8.8-4.5,12-5.1Z"/>
    <path class="cls-2" d="M573.3,240c-5.5-1.2-11.6-2.2-18.2-2.7-5.8-.4-10.9-.4-15.5-.2,6.7,8,13.5,16.1,20.2,24.1.7-3.4,2-7.6,4.6-11.8,2.8-4.7,6.2-7.6,8.9-9.5Z"/>
    <path class="cls-2" d="M550.9,210.7c-5.7.3-12.1.9-18.7,2.1-5.9,1.1-11,2.4-15.5,3.9,8.4,6.3,16.8,12.6,25.2,18.9,0-3.6.4-8.2,2.1-13,1.9-5.4,4.6-9.2,6.9-11.8Z"/>
    <path class="cls-2" d="M452.1,169.9c-5.5,1.4-11.6,3.3-17.8,5.8-5.5,2.2-10.2,4.5-14.2,6.8,9.8,4.1,19.7,8.3,29.5,12.4-.9-3.3-1.7-7.7-1.3-12.6.4-5.4,2.1-9.6,3.7-12.4Z"/>
    <path class="cls-2" d="M489.5,177.3c-5,1.1-10.4,2.5-16.1,4.4-5,1.7-9.3,3.5-13,5.2,8.2,3.1,16.4,6.2,24.7,9.3-.5-2.5-.8-5.8,0-9.5.9-4.1,2.7-7.2,4.4-9.4Z"/>
    <path class="cls-2" d="M521.9,189.5c-5.6.6-11.9,1.7-18.4,3.3-5.7,1.4-10.7,3.1-15,4.8,8.9,5.6,17.8,11.2,26.6,16.8-.3-3.5-.3-8.1.9-12.9,1.4-5.4,3.7-9.4,5.8-12.1Z"/>
    <path class="cls-2" d="M604.1,412.6c-3.7,1.1-7.7,2.6-11.9,4.5-3.6,1.7-6.7,3.4-9.4,5.1,6.8,2.6,13.5,5.1,20.3,7.7-.7-2.3-1.4-5.3-1.2-8.6.1-3.7,1.2-6.6,2.2-8.6Z"/>
    <path class="cls-2" d="M629.8,425.3c-3.8.3-8.1.9-12.5,1.9-3.9.9-7.2,1.9-10.1,3l18.4,11.7c-.3-2.3-.3-5.4.5-8.6.9-3.6,2.4-6.2,3.8-7.9Z"/>
    <path class="cls-2" d="M650.1,449c-4.1-1-8.7-1.9-13.7-2.4-4.4-.5-8.4-.6-12-.5,4,6.1,7.9,12.1,11.9,18.2,1.1-2.5,2.8-5.6,5.4-8.6,2.9-3.3,6-5.4,8.4-6.7Z"/>
    <path class="cls-2" d="M653.2,488.3c-2.3-3.3-5.1-6.8-8.4-10.2-2.9-3.1-5.7-5.6-8.2-7.7-.6,7.2-1.2,14.4-1.8,21.7,2.2-1.3,5.1-2.7,8.7-3.5,4-.9,7.4-.7,9.8-.2Z"/>
    <path class="cls-2" d="M638,519.7c-.4-4.2-1.1-8.9-2.2-13.9-1-4.4-2.2-8.3-3.5-11.6-4.5,5.7-9,11.3-13.5,17,2.7.3,6.2.9,10,2.5,4.2,1.8,7.2,4.1,9.2,6Z"/>
    <path class="cls-4" d="M321.2,193.5c6.8,1.3,14.2.3,21.5-.2,18.1-1.9,38.3-5.9,56.5-9.6,48.1-9,101.7,1.6,137.2,37.1,40.1,41.2,39,93.3-9.1,127.3-56.7,39.7-129.8,26.9-194.2,27.4-21.6.4-44.2,1.2-62.9,11.4-21.1,12.8-26.2,27.3-10.8,48,3.9,5.4,8.2,8.9,14.9,10.9,12.2,3.5,25.3,3,38.8,2.6,15.1-.6,32.1-2.2,47.4-3.6,32.7-3.1,64.3-9.8,96.2-18.6,29.8-8.1,60.7-17.3,92.2-15.3,32,2.1,74.9,13.3,86.5,47.2,14.6,42.6-22.8,64.4-57.7,75.2-68.6,20.8-141.3,14.1-211.2,6-48.3-4.8-98.2-13.3-145.8-.9-14.8,4.2-39.2,14.3-46.9,27.7-8.7,15.6,12.6,29.9,23.9,37.3,9.1,5.7,19.2,9.6,29.7,12.8,37.9,10.8,78,12.8,117.3,13.6,39.7.4,79.4-1.5,119-4.8v.7c-71.7,7.6-203.4,19.3-267-13.2-17.6-9.6-43.5-28-31.6-51,6.9-12.3,18.9-19.2,30.8-25.4,51.7-25.8,116.6-16.4,172.2-12.4,58.4,5,117.9,9.3,175.4-3.3,18.1-4.1,36.9-9.5,52.6-18.8,7.7-4.7,16.3-11.1,18.4-20,1.4-6.5-.7-14.2-4-20-2.9-4.6-7-8.1-11.9-11.2-6.9-4.2-15.2-7.2-23.9-9.3-38.7-9.5-72.3,1.7-109.9,13.2-33.7,10.4-69.1,18.8-104.4,22.8-14.7,1.7-30.5,3.7-45.4,4.7-16.1,1-33.5,1.8-50.1-2.7-8.6-2.2-18-6.9-25-13.3-7.7-7.1-13.6-15.2-18.5-24.6-10-19.1-10.2-42.1,1.9-60.5,5-7.9,11-13.9,17.9-19.5,25.5-20.7,60-24.5,91.1-25.7,47-2,97.5,4.3,141.8-10.2,18.7-6.3,49.7-24.4,43.3-47.4-1.7-6.3-5.7-12.4-10.1-17.7-12-14.6-30.1-22.8-48.7-26.5-15.9-3.1-33-3-48.7.6,0,0-14.4,3.4-14.4,3.4-23.9,5.2-47.9,10.9-73,10.6-3.4-.1-7.1-.4-11.3-1.1l10.1-53.7h0Z"/>
    <path class="cls-4" d="M289.4,217.4c-13.6,1.7-19.6,9.7-33.1,13.6-10.3,3-25.3,6.4-43.9,7.3.1.5.3,1.2.8,1.9.7,1.2,1.7,1.9,2.3,2.3,4,1.2,8,2.4,12,3.5,16.2-1.2,32.5-2.3,48.7-3.5,11.5,1.8,24.6,1.5,36.2,3.3l-14.3-12.3c6.6-4,13.3-8,19.9-12-6.7-2.7-16.8-5.7-28.5-4.3Z"/>
    <path class="cls-1" d="M257.3,198.6c9.9-5.4,21.8-10.9,35.8-15.2,33.7-10.5,110.5-10.7,130-8.4-8.9,0-86.5,1.7-111.8,24.4-11.4,10.2-17.9,21.5-21.6,29.4-10.8-10.1-21.6-20.2-32.4-30.3Z"/>
    <path class="cls-2" d="M247.9,191.9c9.9-5.4,21.8-10.9,35.8-15.2,33.7-10.5,110.5-10.7,130-8.4-8.9,0-86.5,1.7-111.8,24.4-11.4,10.2-17.9,21.5-21.6,29.4-10.8-10.1-21.6-20.2-32.4-30.3Z"/>
    <path class="cls-4" d="M187.8,201.7l73.3-16.6c5.9,3.3,15.5,7.8,28.1,9.7,13.4,2,25.2.4,32-1.3s.3,0,.4-.1l-8.1,54.1-2.5-.3-110.9-22.7c-3.5-.7-6.3-3.3-7.4-6.7l-5-16.1Z"/>
    <path class="cls-5" d="M314.2,194.8c1,6,4.9,15.3,1.7,26.8-4.2,15.1-14.7,23.1-17.7,25.2"/>
    <path class="cls-3" d="M254.4,194.8c-2.6.5-4.2,1.4-6,2.4-2,1.2-4.9,3.2-7.4,6.6l-2.6,3.4,4.2,2.9,2-3.1,2.6,1.5,4.2,2.4-2.7,6.9,5.5,1.8,2.2-6.8h6.8c0,0,.9,7.3.9,7.3l6.4-1.1-2-7.3,7-4.3,4.2,1.9,4.5-4.9-19-8.6c-2.1-.7-6.4-2-11-1.1Z"/>
    <ellipse class="cls-4" cx="252.3" cy="205.4" rx="2.3" ry="4.5" transform="translate(-49.2 83.1) rotate(-17.1)"/>
    <path class="cls-3" d="M316.9,217.6c9.2,1.5,19.1.6,28.5-.4,12.2-1.4,24.4-3.7,36.4-6.1,5.1-1.2,16.7-3.4,21.9-4.7,10-2.1,20.2-3,30.4-2.9,35.4.3,73.1,12.9,95.4,41.7,6.4,8.2,11.7,17.4,14.1,27.6,6.8,28-11.4,51.2-34,65-61.6,36.7-138.8,15.3-206.3,23.7-19.1,2.4-38.5,7.9-52.9,21.2-7,6.2-12.8,14.2-14.7,23.4-3.1,14,3.2,28.3,11.8,39.3,2.9,3.7,6.1,7.2,10.1,9.8,7.9,5.5,17.5,7.5,26.9,8.4,19.6,1.6,39.5-.4,59-2.2,19.7-1.9,39.4-4.2,58.9-8,19.4-3.7,38.6-8.7,57.7-14.1,37.9-11.4,78.6-22.5,118.1-11.4,16.9,4.4,34.9,12.1,44.3,27.8,6.2,11.2,8.5,25.8,2.2,37.4-3.7,6.9-9.6,12.1-15.8,16.6-31.4,21.3-85,28.8-122.5,30.2-64.8,2.8-128.9-9.4-193.4-12.1-34.4-1.1-70.4,1.2-100.9,18.4-39.7,21.7-26.1,44.4,7,63.2,61.7,32.8,194.3,23.3,264.8,17-59.3,5.8-119.2,9.2-178.7,4.6-19.8-1.7-39.6-4.4-58.8-9.7-14.4-3.9-28.4-10-40.4-18.9-19.4-13.8-28.8-31.6-7.1-49.2,7.8-6.3,16.8-10.9,26-14.8,23-9.9,48.5-12.4,73.3-12.7,49.8,0,99.1,8.1,148.7,10.7,42,2.5,84.5,1.6,125.7-7.8,16.6-4,33.6-9.1,48.4-17.6,8.2-4.8,16.3-11.1,20.9-19.5,5.7-10.5,3.3-23.9-2.3-34-3.6-6.2-9.1-11.1-15.2-15-25.3-14.9-56.7-17.7-85.4-13.5-19.5,3-38.4,8.9-57.6,14.4-28.7,8.4-57.9,15.5-87.6,19.4-19.8,2.5-39.6,4.7-59.5,5.9-19.6.7-42.4,2.3-59.5-9.2-8.6-5.9-14.8-14.7-19.5-23.9-12.2-24.3-3.5-46.4,17.6-61.9,30-22.1,74.3-20.1,109.9-20,48.2.1,100.8,4.6,143.6-21.4,29-17.9,42.9-46.4,22.1-76.9-14.6-22.4-39.4-36-65.2-41.3-18.9-4-38.8-4.1-57.7-.1-19.3,4.4-39.3,8.6-58.9,11.1-10.3,1.2-20.4,2.1-30.9.5,0,0,1.5-7.9,1.5-7.9h0Z"/>
  </g>
</svg>